<svg id="svg" version="1.1" xmlns="http://www.w3.org/2000/svg" xmlns:xlink="http://www.w3.org/1999/xlink" width="400" height="400" viewBox="0, 0, 400,400"><g id="svgg"><path id="path0" d="M96.000 24.000 C 96.000 37.333,97.333 40.000,104.000 40.000 C 110.667 40.000,112.000 37.333,112.000 24.000 C 112.000 10.667,110.667 8.000,104.000 8.000 C 97.333 8.000,96.000 10.667,96.000 24.000 M144.000 24.000 C 144.000 37.333,145.333 40.000,152.000 40.000 C 158.667 40.000,160.000 37.333,160.000 24.000 C 160.000 10.667,158.667 8.000,152.000 8.000 C 145.333 8.000,144.000 10.667,144.000 24.000 M192.000 24.000 C 192.000 37.333,193.333 40.000,200.000 40.000 C 206.667 40.000,208.000 37.333,208.000 24.000 C 208.000 10.667,206.667 8.000,200.000 8.000 C 193.333 8.000,192.000 10.667,192.000 24.000 M240.000 24.000 C 240.000 37.333,241.333 40.000,248.000 40.000 C 254.667 40.000,256.000 37.333,256.000 24.000 C 256.000 10.667,254.667 8.000,248.000 8.000 C 241.333 8.000,240.000 10.667,240.000 24.000 M288.000 24.000 C 288.000 37.333,289.333 40.000,296.000 40.000 C 302.667 40.000,304.000 37.333,304.000 24.000 C 304.000 10.667,302.667 8.000,296.000 8.000 C 289.333 8.000,288.000 10.667,288.000 24.000 M52.800 52.800 C 45.918 59.682,45.918 340.318,52.800 347.200 C 59.682 354.082,340.318 354.082,347.200 347.200 C 354.082 340.318,354.082 59.682,347.200 52.800 C 340.318 45.918,59.682 45.918,52.800 52.800 M8.000 104.000 C 8.000 110.667,10.667 112.000,24.000 112.000 C 37.333 112.000,40.000 110.667,40.000 104.000 C 40.000 97.333,37.333 96.000,24.000 96.000 C 10.667 96.000,8.000 97.333,8.000 104.000 M360.000 104.000 C 360.000 110.667,362.667 112.000,376.000 112.000 C 389.333 112.000,392.000 110.667,392.000 104.000 C 392.000 97.333,389.333 96.000,376.000 96.000 C 362.667 96.000,360.000 97.333,360.000 104.000 M8.000 152.000 C 8.000 158.667,10.667 160.000,24.000 160.000 C 37.333 160.000,40.000 158.667,40.000 152.000 C 40.000 145.333,37.333 144.000,24.000 144.000 C 10.667 144.000,8.000 145.333,8.000 152.000 M272.000 200.000 L 272.000 256.000 200.000 256.000 L 128.000 256.000 128.000 200.000 L 128.000 144.000 200.000 144.000 L 272.000 144.000 272.000 200.000 M360.000 152.000 C 360.000 158.667,362.667 160.000,376.000 160.000 C 389.333 160.000,392.000 158.667,392.000 152.000 C 392.000 145.333,389.333 144.000,376.000 144.000 C 362.667 144.000,360.000 145.333,360.000 152.000 M8.000 200.000 C 8.000 206.667,10.667 208.000,24.000 208.000 C 37.333 208.000,40.000 206.667,40.000 200.000 C 40.000 193.333,37.333 192.000,24.000 192.000 C 10.667 192.000,8.000 193.333,8.000 200.000 M360.000 200.000 C 360.000 206.667,362.667 208.000,376.000 208.000 C 389.333 208.000,392.000 206.667,392.000 200.000 C 392.000 193.333,389.333 192.000,376.000 192.000 C 362.667 192.000,360.000 193.333,360.000 200.000 M8.000 248.000 C 8.000 254.667,10.667 256.000,24.000 256.000 C 37.333 256.000,40.000 254.667,40.000 248.000 C 40.000 241.333,37.333 240.000,24.000 240.000 C 10.667 240.000,8.000 241.333,8.000 248.000 M360.000 248.000 C 360.000 254.667,362.667 256.000,376.000 256.000 C 389.333 256.000,392.000 254.667,392.000 248.000 C 392.000 241.333,389.333 240.000,376.000 240.000 C 362.667 240.000,360.000 241.333,360.000 248.000 M8.000 296.000 C 8.000 302.667,10.667 304.000,24.000 304.000 C 37.333 304.000,40.000 302.667,40.000 296.000 C 40.000 289.333,37.333 288.000,24.000 288.000 C 10.667 288.000,8.000 289.333,8.000 296.000 M360.000 296.000 C 360.000 302.667,362.667 304.000,376.000 304.000 C 389.333 304.000,392.000 302.667,392.000 296.000 C 392.000 289.333,389.333 288.000,376.000 288.000 C 362.667 288.000,360.000 289.333,360.000 296.000 M96.000 376.000 C 96.000 389.333,97.333 392.000,104.000 392.000 C 110.667 392.000,112.000 389.333,112.000 376.000 C 112.000 362.667,110.667 360.000,104.000 360.000 C 97.333 360.000,96.000 362.667,96.000 376.000 M144.000 376.000 C 144.000 389.333,145.333 392.000,152.000 392.000 C 158.667 392.000,160.000 389.333,160.000 376.000 C 160.000 362.667,158.667 360.000,152.000 360.000 C 145.333 360.000,144.000 362.667,144.000 376.000 M192.000 376.000 C 192.000 389.333,193.333 392.000,200.000 392.000 C 206.667 392.000,208.000 389.333,208.000 376.000 C 208.000 362.667,206.667 360.000,200.000 360.000 C 193.333 360.000,192.000 362.667,192.000 376.000 M240.000 376.000 C 240.000 389.333,241.333 392.000,248.000 392.000 C 254.667 392.000,256.000 389.333,256.000 376.000 C 256.000 362.667,254.667 360.000,248.000 360.000 C 241.333 360.000,240.000 362.667,240.000 376.000 M288.000 376.000 C 288.000 389.333,289.333 392.000,296.000 392.000 C 302.667 392.000,304.000 389.333,304.000 376.000 C 304.000 362.667,302.667 360.000,296.000 360.000 C 289.333 360.000,288.000 362.667,288.000 376.000 " stroke="none" fill="#000000" fill-rule="evenodd"></path></g></svg>