<svg id="svg" version="1.1" xmlns="http://www.w3.org/2000/svg" xmlns:xlink="http://www.w3.org/1999/xlink" width="400" height="400" viewBox="0, 0, 400,400"><g id="svgg"><path id="path0" d="M192.000 56.000 C 192.000 85.333,192.667 88.000,200.000 88.000 C 207.333 88.000,208.000 85.333,208.000 56.000 C 208.000 26.667,207.333 24.000,200.000 24.000 C 192.667 24.000,192.000 26.667,192.000 56.000 M22.667 66.667 C 17.445 71.888,20.277 75.786,42.367 93.780 C 66.310 113.285,80.000 117.126,80.000 104.340 C 80.000 89.241,31.779 57.555,22.667 66.667 M340.523 80.340 C 319.466 97.105,313.329 112.000,327.477 112.000 C 338.412 112.000,376.000 80.750,376.000 71.660 C 376.000 59.316,362.903 62.521,340.523 80.340 M108.000 130.188 C 108.000 134.133,140.618 191.910,144.039 194.024 C 145.874 195.158,158.558 182.566,172.226 166.043 C 202.336 129.641,197.664 129.641,227.774 166.043 C 241.442 182.566,254.126 195.158,255.961 194.024 C 259.382 191.910,292.000 134.133,292.000 130.188 C 292.000 128.985,250.600 128.000,200.000 128.000 C 149.400 128.000,108.000 128.985,108.000 130.188 M66.892 163.822 C 52.101 181.223,40.000 196.482,40.000 197.730 C 40.000 198.979,60.863 200.000,86.362 200.000 L 132.723 200.000 115.888 169.000 C 106.628 151.950,97.867 136.691,96.418 135.092 C 94.969 133.492,81.682 146.420,66.892 163.822 M291.049 156.671 C 283.346 170.602,274.945 186.050,272.381 191.000 L 267.719 200.000 316.047 200.000 L 364.375 200.000 339.708 171.000 C 326.141 155.050,312.795 139.602,310.049 136.671 C 305.974 132.322,302.482 135.998,291.049 156.671 M178.778 174.918 L 160.046 198.000 180.023 199.209 C 191.010 199.874,209.024 199.874,220.053 199.209 L 240.106 198.000 222.033 176.000 C 198.905 147.847,200.711 147.892,178.778 174.918 M79.140 258.876 C 132.333 315.851,180.036 362.754,179.854 357.900 C 179.774 355.755,171.070 323.400,160.513 286.000 L 141.317 218.000 90.098 216.876 L 38.879 215.753 79.140 258.876 M153.090 221.071 C 154.160 223.860,164.592 259.860,176.271 301.071 C 187.951 342.282,198.629 376.000,200.000 376.000 C 201.371 376.000,212.049 342.282,223.729 301.071 C 235.408 259.860,245.840 223.860,246.910 221.071 C 248.416 217.147,237.806 216.000,200.000 216.000 C 162.194 216.000,151.584 217.147,153.090 221.071 M258.055 221.000 C 254.123 232.602,220.000 356.345,220.000 358.999 C 220.000 362.872,342.325 241.051,352.544 227.000 L 360.545 216.000 310.147 216.000 C 273.399 216.000,259.290 217.354,258.055 221.000 " stroke="none" fill="#000000" fill-rule="evenodd"></path></g></svg>