<svg id="svg" version="1.1" xmlns="http://www.w3.org/2000/svg" xmlns:xlink="http://www.w3.org/1999/xlink" width="400" height="400" viewBox="0, 0, 400,400"><g id="svgg"><path id="path0" d="M180.000 12.597 C 172.300 14.865,164.200 18.156,162.000 19.910 C 159.800 21.663,140.563 28.015,119.251 34.024 C 69.552 48.037,68.517 49.262,37.562 130.689 C 7.657 209.353,8.359 198.196,27.418 292.000 L 42.454 366.000 64.227 366.179 C 76.202 366.277,92.468 369.218,100.374 372.713 C 131.736 386.580,182.015 392.385,191.200 383.200 C 194.602 379.798,196.000 355.911,196.000 301.200 C 196.000 252.400,197.472 224.000,200.000 224.000 C 202.528 224.000,204.000 252.400,204.000 301.200 C 204.000 355.911,205.398 379.798,208.800 383.200 C 217.985 392.385,268.264 386.580,299.626 372.713 C 307.532 369.218,323.798 366.277,335.773 366.179 L 357.546 366.000 372.582 292.000 C 391.578 198.505,392.234 209.919,363.403 132.257 C 333.295 51.156,329.907 47.070,281.807 33.836 C 262.174 28.434,240.686 21.461,234.055 18.339 C 216.497 10.072,195.974 7.892,180.000 12.597 M184.000 55.761 C 184.000 57.359,182.816 59.851,181.368 61.299 C 177.838 64.828,167.524 56.005,170.172 51.721 C 172.520 47.922,184.000 51.276,184.000 55.761 M227.564 58.526 C 224.098 62.702,221.518 63.118,218.403 60.003 C 215.288 56.888,215.694 54.661,219.842 52.097 C 227.974 47.072,233.353 51.550,227.564 58.526 M161.772 134.000 C 168.313 168.454,168.753 168.079,150.479 143.602 L 135.410 123.418 140.569 103.287 C 145.316 84.765,145.122 82.713,138.140 77.607 C 130.775 72.222,130.838 71.751,140.275 61.661 L 150.000 51.264 153.228 78.632 C 155.003 93.684,158.848 118.600,161.772 134.000 M261.984 77.517 C 254.860 82.726,254.665 84.694,259.431 103.287 L 264.590 123.418 249.521 143.602 C 232.493 166.410,230.531 167.068,235.956 148.152 C 238.057 140.827,241.890 116.050,244.473 93.093 L 249.170 51.352 259.433 61.615 C 269.432 71.613,269.497 72.023,261.984 77.517 M205.829 71.724 C 208.787 76.510,201.263 81.253,195.935 77.960 C 191.461 75.195,194.398 68.000,200.000 68.000 C 201.940 68.000,204.563 69.676,205.829 71.724 M210.137 130.326 C 214.049 160.279,208.535 196.000,200.000 196.000 C 188.419 196.000,185.157 124.056,195.497 96.667 C 199.092 87.142,206.816 104.901,210.137 130.326 M95.650 253.000 C 96.115 294.199,91.048 292.234,83.542 248.306 C 78.043 216.118,78.057 211.107,83.681 197.306 L 89.919 182.000 92.609 202.000 C 94.089 213.000,95.457 235.950,95.650 253.000 M316.509 248.003 C 306.344 307.503,299.253 278.313,306.691 207.587 L 309.382 182.000 316.021 197.003 C 322.121 210.787,322.160 214.927,316.509 248.003 M133.832 323.000 C 129.947 346.028,127.811 352.000,123.461 352.000 C 121.261 352.000,120.325 348.850,121.381 345.000 C 122.437 341.150,124.440 331.250,125.832 323.000 C 127.224 314.750,130.163 308.000,132.363 308.000 C 134.768 308.000,135.354 313.980,133.832 323.000 M274.168 323.000 C 275.560 331.250,277.563 341.150,278.619 345.000 C 279.675 348.850,278.739 352.000,276.539 352.000 C 272.189 352.000,270.053 346.028,266.168 323.000 C 264.646 313.980,265.232 308.000,267.637 308.000 C 269.837 308.000,272.776 314.750,274.168 323.000 " stroke="none" fill="#000000" fill-rule="evenodd"></path></g></svg>