<svg id="svg" version="1.1" xmlns="http://www.w3.org/2000/svg" xmlns:xlink="http://www.w3.org/1999/xlink" width="400" height="400" viewBox="0, 0, 400,400"><g id="svgg"><path id="path0" d="M122.478 12.540 L 106.956 20.727 109.135 41.839 C 110.333 53.451,115.635 71.454,120.916 81.846 L 130.519 100.740 200.073 100.513 C 280.119 100.251,271.779 104.722,288.224 53.258 C 298.727 20.389,297.344 16.364,272.756 8.249 C 258.064 3.401,256.570 3.763,238.372 16.590 C 212.704 34.683,193.285 34.792,165.558 17.000 C 141.934 1.841,142.628 1.912,122.478 12.540 M132.890 114.227 C 122.333 121.621,120.956 140.384,130.286 149.714 C 140.404 159.833,264.096 158.943,273.380 148.685 C 282.281 138.849,281.727 125.727,272.000 116.000 C 261.213 105.213,147.823 103.767,132.890 114.227 M115.338 177.229 C 97.677 201.153,81.273 238.673,69.879 281.201 C 55.353 335.420,56.173 343.015,79.204 367.545 C 101.231 391.007,107.835 392.272,135.393 378.308 L 154.520 368.615 171.823 382.308 C 193.700 399.620,205.406 399.575,227.395 382.094 L 244.790 368.266 264.262 378.133 C 302.192 397.353,342.500 367.685,338.354 323.599 C 334.467 282.264,310.781 218.164,284.995 179.199 C 273.578 161.947,235.583 154.729,241.833 171.000 C 257.842 212.679,266.910 276.084,262.226 313.579 C 258.094 346.648,251.676 341.198,254.479 307.000 C 257.257 273.100,251.762 229.020,240.018 191.000 L 231.679 164.000 216.084 164.000 C 197.858 164.000,195.329 172.249,194.464 234.508 C 194.182 254.799,192.429 267.408,190.000 266.609 C 185.328 265.070,184.787 229.493,188.849 191.000 L 191.699 164.000 180.412 164.000 C 160.543 164.000,140.526 246.042,145.521 307.000 C 148.353 341.547,141.905 346.464,137.653 313.000 C 134.105 285.068,140.893 226.694,151.746 191.825 C 156.108 177.810,159.299 166.071,158.838 165.738 C 146.235 156.635,126.739 161.785,115.338 177.229 " stroke="none" fill="#000000" fill-rule="evenodd"></path></g></svg>